Coordinates
version=1
nRows=13
nColumns=40
inDegrees=yes

Units are S.I. units (second, meters, Newtons, ...)
Angles are in degrees.

endheader
time	pelvis_tilt	pelvis_list	pelvis_rotation	pelvis_tx	pelvis_ty	pelvis_tz	hip_flexion_r	hip_adduction_r	hip_rotation_r	knee_angle_r	knee_angle_r_beta	ankle_angle_r	subtalar_angle_r	mtp_angle_r	hip_flexion_l	hip_adduction_l	hip_rotation_l	knee_angle_l	knee_angle_l_beta	ankle_angle_l	subtalar_angle_l	mtp_angle_l	lumbar_extension	lumbar_bending	lumbar_rotation	arm_flex_r	arm_add_r	arm_rot_r	elbow_flex_r	pro_sup_r	wrist_flex_r	wrist_dev_r	arm_flex_l	arm_add_l	arm_rot_l	elbow_flex_l	pro_sup_l	wrist_flex_l	wrist_dev_l
     48.89750000	     -3.43334540	     -5.42597547	     -1.02454887	      1.02720384	      0.93694173	      0.39965515	     27.81216258	     -5.37612922	     -3.26355540	     54.10294839	     54.10294839	      3.01977068	     -8.46471245	     -2.33246006	     11.26239847	     -7.22504272	    -10.37923864	     19.96080243	     19.96080243	     14.38466523	     -7.23536516	      0.58926687	     -9.86633301	      6.00690177	      1.06634106	     -4.71151154	    -11.94376509	     -3.83640527	     28.58480910	     45.95896729	      0.00000000	      0.00000000	     29.21251122	    -21.47906426	     -0.46753253	     48.74579889	     46.07236569	      0.00000000	      0.00000000
     48.91071429	     -3.46415943	     -5.49537545	     -1.40373120	      1.02655904	      0.93744606	      0.40025495	     27.89275567	     -5.07010620	     -3.24668319	     51.20254652	     51.20254652	      3.09835616	     -8.41027641	     -2.15345255	     10.51309973	     -7.24294067	    -10.57712281	     19.23709460	     19.23709460	     14.35853113	     -7.43555904	      0.57952925	     -9.98140729	      6.03961052	      1.35367743	     -6.28354022	    -11.88684847	     -3.76166473	     28.37246450	     45.95054043	      0.00000000	      0.00000000	     29.82898036	    -21.57212343	     -0.94280071	     50.11951860	     46.14281599	      0.00000000	      0.00000000
     48.92392857	     -3.55103888	     -5.49128047	     -1.82962246	      1.02587849	      0.93760588	      0.40106726	     27.94591274	     -4.81246875	     -3.25545130	     48.03284956	     48.03284956	      3.13033256	     -8.23026698	     -2.22023099	      9.85881782	     -7.19532265	    -10.77011058	     18.58338164	     18.58338164	     14.24785091	     -7.77895279	      0.34199173	    -10.07949401	      5.97251508	      1.64121573	     -7.85952028	    -11.77145219	     -3.72821137	     28.49113267	     45.93235619	      0.00000000	      0.00000000	     30.23510424	    -21.77214350	     -1.70375584	     52.04209519	     46.24590696	      0.00000000	      0.00000000
     48.93714286	     -3.76873135	     -5.51983214	     -2.21959170	      1.02511188	      0.93746815	      0.40191178	     27.97733225	     -4.55468654	     -3.49845615	     44.50949483	     44.50949483	      3.10565679	     -7.76428178	     -2.00677310	      9.47134310	     -7.22023593	    -10.96619106	     18.14648706	     18.14648706	     14.27277275	     -7.99152441	      0.16126821	     -9.97561739	      6.03175159	      1.64021790	     -9.03894862	    -11.71227304	     -3.72354226	     28.37708004	     45.92860082	      0.00000000	      0.00000000	     30.54729602	    -22.08393248	     -2.16657893	     53.14938949	     46.30754525	      0.00000000	      0.00000000
     48.95035714	     -4.03464767	     -5.55292216	     -2.61675357	      1.02430789	      0.93710899	      0.40300648	     27.93878889	     -4.22937389	     -3.80591350	     40.75891951	     40.75891951	      3.13646821	     -7.08446160	     -1.72561521	      9.13765743	     -7.27345064	    -11.19770645	     17.70881114	     17.70881114	     14.29917070	     -8.17276050	      0.02321587	     -9.86966111	      6.05603866	      1.77125574	    -10.10132299	    -11.58126844	     -3.71287596	     28.18838274	     45.92805869	      0.00000000	      0.00000000	     30.89425896	    -22.35019750	     -2.56998681	     54.23410040	     46.36229663	      0.00000000	      0.00000000
     48.96357143	     -4.16236998	     -5.43892609	     -3.08486094	      1.02369317	      0.93680748	      0.40424491	     27.60014961	     -4.02483276	     -4.18740799	     36.71268578	     36.71268578	      2.67637670	     -6.10986769	     -2.69700672	      8.54061463	     -7.12962174	    -11.41812068	     17.06645248	     17.06645248	     13.89464341	     -8.64939596	     -0.93376924	     -9.99480045	      5.86544916	      1.80892913	    -11.11346131	    -11.53169567	     -3.84694803	     28.61361794	     45.92278084	      0.00000000	      0.00000000	     30.18345411	    -22.61039859	     -4.21178185	     57.97736926	     46.56125383	      0.00000000	      0.00000000
     48.97678571	     -4.47211585	     -5.45475840	     -3.46590769	      1.02292088	      0.93614447	      0.40562249	     27.35024250	     -3.59734360	     -4.63001883	     32.59879501	     32.59879501	      2.52790133	     -4.96466468	     -2.11967794	      8.37243739	     -7.21202275	    -11.63906625	     16.86187931	     16.86187931	     14.01838334	     -8.82699343	     -1.08379105	     -9.80516622	      5.90832788	      1.85984342	    -11.73525988	    -11.44305680	     -3.80706757	     28.34778670	     45.92764690	      0.00000000	      0.00000000	     30.47692843	    -22.86965001	     -4.45479939	     58.53847377	     46.59450672	      0.00000000	      0.00000000
     48.99000000	     -4.61645950	     -5.44928803	     -3.86587443	      1.02243183	      0.93558968	      0.40716960	     26.77758573	     -3.18444197	     -5.32642131	     28.40530564	     28.40530564	      2.32068772	     -3.29543795	     -1.54005323	      7.96922165	     -7.27159976	    -11.89916213	     16.61082992	     16.61082992	     14.15730397	     -8.96914532	     -1.30316205	     -9.79803962	      5.86452587	      2.11170383	    -12.33349430	    -11.43622198	     -3.78237166	     28.03518259	     45.93684469	      0.00000000	      0.00000000	     30.68643229	    -22.91808859	     -4.77446258	     59.55548939	     46.64016007	      0.00000000	      0.00000000
     49.00321429	     -4.82214583	     -5.35689694	     -4.21427376	      1.02196751	      0.93485310	      0.40871115	     26.22928290	     -2.81583318	     -6.01832612	     24.35408860	     24.35408860	      2.01539960	     -1.37170199	     -0.83015805	      7.67321790	     -7.24249213	    -12.19429377	     16.40096418	     16.40096418	     14.23758958	     -9.08129904	     -1.54669589	     -9.74274504	      5.80818763	      2.34132512	    -12.76408286	    -11.35577764	     -3.76955215	     27.78928770	     45.94552217	      0.00000000	      0.00000000	     30.77841523	    -22.93755131	     -5.11336925	     60.65198936	     46.68731343	      0.00000000	      0.00000000
     49.01642857	     -4.92266066	     -5.26564236	     -4.52687511	      1.02174572	      0.93411725	      0.41040781	     25.54568387	     -2.43914973	     -6.89040710	     20.60525661	     20.60525661	      1.71291117	      0.88839227	      0.03915677	      7.25107720	     -7.22048120	    -12.45872919	     16.20005194	     16.20005194	     14.36833447	     -9.16015029	     -1.89707307	     -9.79062855	      5.71269433	      2.52468273	    -13.03999855	    -11.34104551	     -3.78496213	     27.55443641	     45.95846102	      0.00000000	      0.00000000	     30.67918551	    -22.95438400	     -5.57070960	     61.97235000	     46.74653402	      0.00000000	      0.00000000
     49.02964286	     -5.21009645	     -4.97986066	     -4.84289792	      1.02150610	      0.93293450	      0.41230561	     25.25357260	     -2.16286466	     -7.43608512	     17.51255498	     17.51255498	      1.33932517	      2.55676879	      0.94732415	      7.10682667	     -7.02653674	    -12.73642436	     16.10812974	     16.10812974	     14.51231758	     -9.25054535	     -2.15479472	     -9.53545523	      5.36606929	      2.63586167	    -13.14170720	    -11.19954430	     -3.77771004	     27.45118545	     45.96354679	      0.00000000	      0.00000000	     30.63562927	    -22.96925239	     -5.83728299	     62.76290264	     46.78140226	      0.00000000	      0.00000000
     49.04285714	     -5.20699871	     -4.98697924	     -5.04946307	      1.02180265	      0.93231400	      0.41411773	     24.58710648	     -1.78186649	     -8.88405256	     14.98666094	     14.98666094	      1.93240462	      5.50856325	      4.24045556	      6.46662528	     -7.07519009	    -12.89349587	     15.71351731	     15.71351731	     14.31734981	     -9.45525802	     -3.21187248	     -9.68727887	      5.41634589	      1.84459228	    -12.31314528	    -11.29267507	     -3.70130750	     26.67051847	     46.02740672	      0.00000000	      0.00000000	     28.82571777	    -23.31568990	     -8.04493186	     66.19733804	     47.02228645	      0.00000000	      0.00000000
     49.05607143	     -5.33136067	     -4.90176025	     -5.21716929	      1.02215703	      0.93138150	      0.41618753	     24.09056095	     -1.33663429	     -9.56532983	     12.86558778	     12.86558778	      1.55140960	      6.72604966	      4.95242400	      6.09022221	     -7.08050691	    -13.02556738	     15.57984037	     15.57984037	     14.56598558	     -9.47954574	     -3.31289359	     -9.54714310	      5.36006153	      2.03354310	    -12.26497528	    -11.26893160	     -3.62844366	     26.58415220	     46.02953003	      0.00000000	      0.00000000	     28.77861674	    -23.09358848	     -8.06877504	     66.49289567	     47.03224910	      0.00000000	      0.00000000
